<svg xmlns="http://www.w3.org/2000/svg" viewBox="0 0 64 64">
  <rect width="64" height="64" rx="14" fill="#1f8ba0"></rect>
  <g transform="translate(16,16)" fill="none" stroke="#f7fcfd" stroke-width="2.3" stroke-linejoin="round" stroke-linecap="round">
    <path d="M16 3.2 23.4 7.4 16 11.6 8.6 7.4Z" fill="#f7fcfd" fill-opacity="0.25" stroke="none"></path>
    <path d="M16 3.2 23.4 7.4 23.4 13 16 17.2 8.6 13 8.6 7.4Z"></path>
    <path d="M8.6 7.4 16 11.6 23.4 7.4M16 11.6V17.2"></path>
    <path d="M2.5 21.6c2.25-2.6 4.5-2.6 6.75 0s4.5 2.6 6.75 0 4.5-2.6 6.75 0 4.5 2.6 6.75 0"></path>
    <path d="M6.8 26.6c2.05-2.3 4.1-2.3 6.15 0s4.1 2.3 6.15 0 4.1-2.3 6.15 0"></path>
  </g>
</svg>